<svg width="24" height="24" viewBox="0 0 24 24" fill="none" xmlns="http://www.w3.org/2000/svg">
<path d="M11 2C15.9707 2 20 6.0293 20 11C20 15.9707 15.9707 20 11 20C6.0293 20 2 15.9707 2 11C2 6.0293 6.0293 2 11 2ZM11 3.8C9.20878 3.80097 7.48223 4.46959 6.15754 5.67527C4.83285 6.88096 4.00514 8.53713 3.83606 10.3204C3.66698 12.1036 4.16866 13.8858 5.24314 15.319C6.31762 16.7521 7.88774 17.7333 9.64686 18.071C11.406 18.4086 13.2278 18.0783 14.7565 17.1448C16.2852 16.2112 17.411 14.7413 17.9141 13.0222C18.4172 11.3031 18.2614 9.45816 17.4772 7.84773C16.693 6.2373 15.3366 4.97702 13.673 4.313C13.7524 4.86009 13.6619 5.41836 13.4138 5.91237C13.1657 6.40639 12.7719 6.81234 12.2857 7.07538C11.7994 7.33842 11.2442 7.44586 10.6949 7.3832C10.1457 7.32054 9.62889 7.09079 9.2144 6.725C9.04226 6.57369 8.93433 6.36241 8.91263 6.13425C8.89093 5.90609 8.95709 5.67825 9.09761 5.4972C9.23814 5.31614 9.44244 5.19552 9.66885 5.15994C9.89525 5.12435 10.1267 5.17649 10.316 5.3057L10.4051 5.375C10.5143 5.47133 10.6453 5.53971 10.7868 5.57428C10.9283 5.60885 11.076 5.60857 11.2173 5.57346C11.3587 5.53835 11.4894 5.46947 11.5983 5.37272C11.7071 5.27598 11.7909 5.15426 11.8423 5.01801C11.8938 4.88177 11.9114 4.73507 11.8937 4.59052C11.876 4.44596 11.8235 4.30787 11.7406 4.18808C11.6578 4.0683 11.5471 3.97041 11.4181 3.90281C11.2891 3.83522 11.1456 3.79994 11 3.8ZM13.376 13.9088C13.5593 14.0616 13.6743 14.2809 13.6959 14.5186C13.7175 14.7562 13.6439 14.9927 13.4912 15.176C12.8864 15.9023 12.0116 16.4 11 16.4C9.9884 16.4 9.1136 15.9023 8.5088 15.176C8.36276 14.9919 8.29449 14.7581 8.31857 14.5244C8.34265 14.2906 8.45717 14.0756 8.63766 13.9252C8.81816 13.7748 9.05032 13.7009 9.28455 13.7194C9.51877 13.7378 9.7365 13.8472 9.8912 14.024C10.2143 14.411 10.6094 14.6 11 14.6C11.3906 14.6 11.7857 14.411 12.1088 14.024C12.2616 13.8407 12.4809 13.7257 12.7186 13.7041C12.9562 13.6825 13.1927 13.7561 13.376 13.9088ZM7.85 9.2C8.20804 9.2 8.55142 9.34223 8.80459 9.59541C9.05777 9.84858 9.2 10.192 9.2 10.55C9.2 10.908 9.05777 11.2514 8.80459 11.5046C8.55142 11.7578 8.20804 11.9 7.85 11.9C7.49196 11.9 7.14858 11.7578 6.89541 11.5046C6.64223 11.2514 6.5 10.908 6.5 10.55C6.5 10.192 6.64223 9.84858 6.89541 9.59541C7.14858 9.34223 7.49196 9.2 7.85 9.2ZM14.15 9.2C14.508 9.2 14.8514 9.34223 15.1046 9.59541C15.3578 9.84858 15.5 10.192 15.5 10.55C15.5 10.908 15.3578 11.2514 15.1046 11.5046C14.8514 11.7578 14.508 11.9 14.15 11.9C13.792 11.9 13.4486 11.7578 13.1954 11.5046C12.9422 11.2514 12.8 10.908 12.8 10.55C12.8 10.192 12.9422 9.84858 13.1954 9.59541C13.4486 9.34223 13.792 9.2 14.15 9.2Z" fill="#526AFF"/>
</svg>
