<svg width="11" height="17" viewBox="0 0 11 17" fill="none" xmlns="http://www.w3.org/2000/svg">
<path d="M2.875 4H6.625M2.875 4V5.875H6.625V4M2.875 4V2.875C2.875 1.75 4 1 5.125 1H9.25C9.25 1 6.625 1.75 6.625 3.25V4M1 6.625C1 6.42609 1.07902 6.23532 1.21967 6.09467C1.36032 5.95402 1.55109 5.875 1.75 5.875H7.75C7.94891 5.875 8.13968 5.95402 8.28033 6.09467C8.42098 6.23532 8.5 6.42609 8.5 6.625V13.75C8.5 13.75 8.5 16 6.25 16H3.25C1 16 1 13.75 1 13.75V6.625Z" stroke="#FF25D3" stroke-width="2" stroke-linecap="round" stroke-linejoin="round"/>
</svg>
