<svg width="15" height="15" viewBox="0 0 15 15" fill="none" xmlns="http://www.w3.org/2000/svg">
<g clip-path="url(#clip0_691_23808)">
<path d="M12.9998 11.5C12.9998 13.5 12.4998 15 11.4998 15H3.4998C2.4998 15 1.9998 13.5 1.9998 11.5C6.4998 14 8.4998 14 12.9998 11.5ZM7.4998 11C7.7498 11 7.9998 11.25 7.9998 11.5C7.9998 11.75 7.7498 12 7.4998 12C7.2498 12 6.9998 11.75 6.9998 11.5C6.9998 11.25 7.2498 11 7.4998 11ZM11.9998 10H2.9998C2.4998 10 1.9998 10.5 1.9998 11C6.4998 13.5 8.4998 13.5 12.9998 11C12.9998 10.5 12.4998 10 11.9998 10ZM3.9698 8.5C2.8298 8.5 1.9798 8.5 1.6998 7.37C1.6998 7.37 1.1298 5.1 1.1298 4.25C1.1298 2.83 1.6998 2.27 3.1198 2.27H4.8198C6.2298 2.27 6.7998 2.83 6.7998 4.25C6.7998 5.1 6.2298 7.37 6.2298 7.37C5.9498 8.5 5.0998 8.5 3.9698 8.5ZM4.5298 0H3.3998C2.8298 0 2.8298 0.57 2.8298 0.71C3.2598 0.71 3.2598 1.27 2.8298 1.27C2.8298 1.42 2.8298 1.98 3.3998 1.98H4.5298C5.0998 1.98 5.2398 1.42 5.2398 1.13H5.9498C5.9498 1.42 6.2298 1.7 6.7998 1.7C7.3698 1.7 7.9298 1.42 7.9298 0.99C7.9298 0.57 7.3698 0.28 6.7998 0.28C6.2298 0.28 5.9498 0.57 5.9498 0.85H5.2398C5.2398 0.57 5.0998 0 4.5298 0ZM2.0898 1.14C2.1598 1.12 2.2298 1.18 2.2498 1.25C2.2598 1.33 2.1998 1.4 2.1298 1.42L1.8398 1.46C1.7698 1.47 1.6998 1.41 1.6798 1.34C1.6698 1.26 1.7298 1.19 1.7998 1.18L2.0898 1.14ZM1.2398 1.25C1.3198 1.24 1.3898 1.3 1.3998 1.38C1.4198 1.45 1.3598 1.52 1.2798 1.54L0.999803 1.58C0.963044 1.58318 0.926402 1.5727 0.896885 1.55056C0.867368 1.52842 0.847045 1.49618 0.839803 1.46C0.829803 1.38 0.889803 1.31 0.959803 1.3L1.2398 1.25ZM0.399803 1.38C0.479803 1.36 0.549803 1.42 0.559803 1.5C0.569803 1.57 0.519803 1.64 0.439803 1.66L0.159803 1.7C0.122871 1.70412 0.0857581 1.694 0.0560291 1.6717C0.0263001 1.6494 0.00619211 1.61661 -0.000196916 1.58C-0.0101969 1.5 0.0398031 1.43 0.119803 1.42L0.399803 1.38ZM0.159803 0.28L0.439803 0.33C0.519803 0.34 0.569803 0.41 0.559803 0.49C0.549803 0.56 0.479803 0.62 0.399803 0.61L0.119803 0.56C0.10198 0.558267 0.0846843 0.55298 0.0689389 0.54445C0.0531935 0.53592 0.0393176 0.524321 0.0281309 0.510338C0.0169442 0.496354 0.0086738 0.480271 0.00380828 0.463037C-0.00105723 0.445803 -0.00241912 0.427769 -0.000196916 0.41C0.00980308 0.33 0.0798031 0.27 0.159803 0.28ZM0.999803 0.41L1.2798 0.45C1.3598 0.46 1.4198 0.53 1.3998 0.61C1.3898 0.68 1.3198 0.74 1.2398 0.73L0.959803 0.69C0.889803 0.67 0.829803 0.6 0.839803 0.53C0.849803 0.45 0.929803 0.39 0.999803 0.41ZM1.8398 0.53C1.7698 0.51 1.6998 0.57 1.6798 0.65C1.6698 0.72 1.7298 0.79 1.7998 0.81L2.0898 0.85C2.1598 0.86 2.2298 0.8 2.2498 0.73C2.2598 0.65 2.1998 0.58 2.1298 0.56L1.8398 0.53ZM14.9998 4L13.1298 2H9.3798L7.4998 4L11.2498 8.5L14.9998 4ZM12.7998 4L13.1298 2.5L14.5298 4H12.7998ZM12.6598 4.5H14.0598L11.7198 7.5L12.6598 4.5ZM12.4198 4L11.5798 2.5H12.7998L12.4198 4ZM10.3098 4.5H12.1898L11.2498 7.75L10.3098 4.5ZM10.4498 4L11.2498 2.5L12.0498 4H10.4498ZM10.0798 4L9.6998 2.5H10.9198L10.0798 4ZM10.7798 7.5L8.4398 4.5H9.8398L10.7798 7.5ZM9.3798 2.5L9.6998 4H7.9698L9.3798 2.5Z" fill="#E93C3C"/>
</g>
<defs>
<clipPath id="clip0_691_23808">
<rect width="15" height="15" fill="white"/>
</clipPath>
</defs>
</svg>
