<svg width="18" height="17" viewBox="0 0 18 17" fill="none" xmlns="http://www.w3.org/2000/svg">
<path d="M16.5 0H0.9C-0.3 0 -0.3 1.8 0.9 1.8V5.1H16.5V1.8C17.7 1.8 17.7 0 16.5 0ZM8.7 3.6C8.4 3.6 8.1 3.3 8.1 3C8.1 2.7 8.4 2.4 8.7 2.4C9 2.4 9.3 2.7 9.3 3C9.3 3.3 9 3.6 8.7 3.6ZM0.9 9.6H16.5V6H0.9V9.6ZM8.7 7.2C9 7.2 9.3 7.5 9.3 7.8C9.3 8.1 9 8.4 8.7 8.4C8.4 8.4 8.1 8.1 8.1 7.8C8.1 7.5 8.4 7.2 8.7 7.2ZM0.9 10.5V16.2C0.9 16.8 3.9 16.8 3.9 16.2V14.4H13.5V16.2C13.5 16.8 16.5 16.8 16.5 16.2V10.5H0.9ZM8.7 12C9 12 9.3 12.3 9.3 12.6C9.3 12.9 9 13.2 8.7 13.2C8.4 13.2 8.1 12.9 8.1 12.6C8.1 12.3 8.4 12 8.7 12Z" fill="#A52A2A"/>
</svg>
