<svg width="16" height="16" viewBox="0 0 16 16" fill="none" xmlns="http://www.w3.org/2000/svg">
<path d="M4 1L1 4H4L6 1H4ZM7 1L6 4H9L8 1H7ZM9 1L11 4H14L11 1H9ZM1 5C1 5.554 1.446 6 2 6H3C3.554 6 4 5.554 4 5H1ZM6 5C6 5.554 6.446 6 7 6H8C8.554 6 9 5.554 9 5H6ZM11 5C11 5.554 11.446 6 12 6H13C13.554 6 14 5.554 14 5H11ZM2 7V12H1.5C1.36739 12 1.24021 12.0527 1.14645 12.1464C1.05268 12.2402 1 12.3674 1 12.5C1 12.6326 1.05268 12.7598 1.14645 12.8536C1.24021 12.9473 1.36739 13 1.5 13H2V14C2 14.554 2.446 15 3 15H12C12.554 15 13 14.554 13 14V13H13.5C13.777 13 14 12.777 14 12.5C14 12.223 13.763 12.088 13.5 12H13V7H12V12H3V7H2ZM5 8.5C5.00062 8.88744 5.09128 9.26943 5.26483 9.61582C5.43837 9.96222 5.69005 10.2635 6 10.496V11H9V10.498C9.31022 10.2653 9.56206 9.9637 9.73562 9.61693C9.90918 9.27016 9.99969 8.88777 10 8.5H5Z" fill="#EC1F1F"/>
</svg>
