<svg width="27" height="12" viewBox="0 0 27 12" fill="none" xmlns="http://www.w3.org/2000/svg">
<path d="M25.5825 10.8675L22.6425 5.9025L25.5525 1.14C25.6216 1.02651 25.6593 0.896703 25.6618 0.763858C25.6642 0.631014 25.6313 0.499901 25.5665 0.383934C25.5016 0.267968 25.4071 0.171311 25.2927 0.103852C25.1782 0.0363923 25.0479 0.000552859 24.915 0H1.5C1.10218 0 0.720644 0.158036 0.43934 0.43934C0.158035 0.720645 0 1.10218 0 1.5L0 10.5C0 10.8978 0.158035 11.2794 0.43934 11.5607C0.720644 11.842 1.10218 12 1.5 12H24.9375C25.0699 12 25.1999 11.9649 25.3143 11.8984C25.4288 11.8318 25.5236 11.7362 25.5891 11.6212C25.6546 11.5061 25.6885 11.3758 25.6873 11.2435C25.6862 11.1111 25.65 10.9814 25.5825 10.8675ZM7.8825 8.385H7.0425L4.5975 5.13V8.3925H3.75V3.75H4.5975L7.05 7.0125V3.75H7.89L7.8825 8.385ZM12.63 4.5H9.9825V5.6175H12.3825V6.3675H9.9825V7.575H12.63V8.325H9.135V3.75H12.6225L12.63 4.5ZM18.8475 8.37H18L16.8375 4.9275L15.675 8.385H14.835L13.335 3.75H14.25L15.24 7.0725L16.38 3.75H17.295L18.39 7.0725L19.3875 3.75H20.31L18.8475 8.37Z" fill="url(#paint0_linear_336_12390)"/>
<defs>
<linearGradient id="paint0_linear_336_12390" x1="-6.44933e-08" y1="12.5" x2="25.5" y2="0.5" gradientUnits="userSpaceOnUse">
<stop stop-color="#FF2C2C"/>
<stop offset="1" stop-color="#E223FF"/>
</linearGradient>
</defs>
</svg>
