<svg width="12" height="12" viewBox="0 0 12 12" fill="none" xmlns="http://www.w3.org/2000/svg">
<path fill-rule="evenodd" clip-rule="evenodd" d="M4.59876 0.225258C4.65128 0.165671 4.71933 0.121853 4.79531 0.098696C4.8713 0.0755385 4.95222 0.0739524 5.02905 0.0941147C5.97962 0.341829 7.44019 0.985543 8.67105 2.13154C9.91133 3.28783 10.9262 4.96526 10.9262 7.25297C10.9262 8.15897 10.723 9.26726 10.0193 10.1853C9.30448 11.1195 8.11905 11.7967 6.27962 11.9107H6.27448C3.82305 12.0341 2.1019 10.7604 1.41019 9.00583C0.724475 7.26669 1.06819 5.10326 2.61362 3.46183C2.6545 3.41828 2.70403 3.38376 2.75904 3.36047C2.81405 3.33719 2.87331 3.32566 2.93304 3.32663C2.99276 3.3276 3.05162 3.34104 3.10585 3.3661C3.16007 3.39115 3.20846 3.42726 3.2479 3.47211L4.33219 4.70297C4.72905 3.99497 4.9219 3.37783 4.95105 2.75983C4.98105 2.13154 4.84219 1.46811 4.52248 0.6684C4.49301 0.594642 4.48462 0.514145 4.49824 0.435895C4.51186 0.357645 4.54696 0.284719 4.59962 0.225258H4.59876ZM4.5559 6.74383C4.5559 6.65941 4.57253 6.57581 4.60484 6.49782C4.63714 6.41982 4.6845 6.34896 4.74419 6.28926C4.80389 6.22957 4.87475 6.18221 4.95275 6.14991C5.03075 6.1176 5.11434 6.10097 5.19876 6.10097C5.28318 6.10097 5.36678 6.1176 5.44477 6.14991C5.52277 6.18221 5.59363 6.22957 5.65333 6.28926C5.71302 6.34896 5.76038 6.41982 5.79268 6.49782C5.82499 6.57581 5.84162 6.65941 5.84162 6.74383C5.84162 6.91433 5.77389 7.07784 5.65333 7.1984C5.53277 7.31896 5.36926 7.38669 5.19876 7.38669C5.02826 7.38669 4.86475 7.31896 4.74419 7.1984C4.62363 7.07784 4.5559 6.91433 4.5559 6.74383ZM7.9759 6.85183C8.01569 6.81198 8.04725 6.76469 8.06876 6.71265C8.09027 6.66061 8.10132 6.60484 8.10128 6.54853C8.10124 6.49221 8.09011 6.43646 8.06853 6.38445C8.04694 6.33244 8.01532 6.28519 7.97548 6.2454C7.93563 6.20561 7.88833 6.17406 7.83629 6.15254C7.78425 6.13103 7.72848 6.11998 7.67217 6.12002C7.61586 6.12006 7.56011 6.13119 7.5081 6.15278C7.45609 6.17436 7.40884 6.20598 7.36905 6.24583L4.55505 9.05983C4.51411 9.09936 4.48146 9.14665 4.459 9.19894C4.43654 9.25123 4.42472 9.30747 4.42422 9.36437C4.42373 9.42128 4.43457 9.47771 4.45612 9.53038C4.47767 9.58305 4.50949 9.6309 4.54973 9.67114C4.58997 9.71138 4.63782 9.7432 4.69049 9.76475C4.74316 9.7863 4.7996 9.79714 4.8565 9.79665C4.91341 9.79616 4.96965 9.78433 5.02193 9.76187C5.07422 9.73941 5.12151 9.70676 5.16105 9.66583L7.9759 6.85183ZM6.8359 9.16869C6.8359 8.99819 6.90363 8.83468 7.02419 8.71412C7.14475 8.59356 7.30826 8.52583 7.47876 8.52583C7.64926 8.52583 7.81277 8.59356 7.93333 8.71412C8.05389 8.83468 8.12162 8.99819 8.12162 9.16869C8.12162 9.33918 8.05389 9.5027 7.93333 9.62325C7.81277 9.74381 7.64926 9.81154 7.47876 9.81154C7.30826 9.81154 7.14475 9.74381 7.02419 9.62325C6.90363 9.5027 6.8359 9.33918 6.8359 9.16869Z" fill="#5A63EF"/>
</svg>
