<svg width="18" height="18" viewBox="0 0 18 18" fill="none" xmlns="http://www.w3.org/2000/svg">
<path d="M13.3358 1.66304C11.7693 0.226982 8.90405 0.51542 6.94258 2.31356C5.87147 3.29547 5.25558 4.68857 5.24219 5.66435C5.2288 6.634 5.41625 8.05164 4.33844 9.03969L1.5 11.6418L2.45061 12.5132L5.28905 9.91115C6.36686 8.92309 7.91327 9.09493 8.97099 9.08265C10.0287 9.07038 11.555 8.50578 12.6262 7.52386C14.5809 5.72572 14.9023 3.09909 13.3358 1.66304ZM7.17688 7.30293C6.15263 6.36397 6.47397 4.47378 7.88649 3.17887C9.29902 1.88397 11.3542 1.58939 12.3852 2.52835C13.4094 3.46731 13.0881 5.3575 11.6755 6.65241C10.263 7.94731 8.20783 8.24189 7.17688 7.30293ZM12.3182 10.5678C12.673 10.5678 13.0144 10.6967 13.2621 10.9299C13.7843 11.4086 13.7843 12.188 13.2621 12.6667C13.0144 12.8937 12.673 13.0226 12.3182 13.0226C11.9634 13.0226 11.622 12.8937 11.3743 12.6605C10.8521 12.1818 10.8521 11.4024 11.3743 10.9237C11.622 10.6967 11.9634 10.5678 12.3182 10.5678ZM12.3182 9.34041C11.788 9.33943 11.2694 9.48285 10.8283 9.75246C10.3871 10.0221 10.0432 10.4057 9.84028 10.8548C9.63732 11.3038 9.58442 11.798 9.68829 12.2746C9.79215 12.7513 10.0481 13.1889 10.4237 13.532C10.9459 14.0107 11.6354 14.25 12.3182 14.25C12.8484 14.251 13.367 14.1076 13.8082 13.8379C14.2493 13.5683 14.5932 13.1847 14.7961 12.7356C14.9991 12.2866 15.052 11.7924 14.9481 11.3158C14.8443 10.8391 14.5883 10.4015 14.2127 10.0584C13.9639 9.83054 13.6685 9.64984 13.3434 9.52664C13.0183 9.40343 12.67 9.34015 12.3182 9.34041Z" fill="#26FF00"/>
</svg>
